<svg width="195" height="80" viewBox="0 0 195 80" fill="none" xmlns="http://www.w3.org/2000/svg">
<path d="M117 20C117 10.0589 125.059 2 135 2H175C184.941 2 193 10.0589 193 20V60C193 69.9411 184.941 78 175 78H135C125.059 78 117 69.9411 117 60V20Z" stroke="white" stroke-width="4"/>
<path d="M176.061 41.0607C176.646 40.4749 176.646 39.5251 176.061 38.9393L166.515 29.3934C165.929 28.8076 164.979 28.8076 164.393 29.3934C163.808 29.9792 163.808 30.9289 164.393 31.5147L172.879 40L164.393 48.4853C163.808 49.0711 163.808 50.0208 164.393 50.6066C164.979 51.1924 165.929 51.1924 166.515 50.6066L176.061 41.0607ZM135 41.5H175V38.5H135V41.5Z" fill="white"/>
<path d="M78 60C78 69.9411 69.9411 78 60 78L20 78C10.0589 78 2 69.9411 2 60L1.99999 20C1.99999 10.0589 10.0589 2.00001 20 2.00001L60 2C69.9411 2 78 10.0589 78 20L78 60Z" stroke="white" stroke-width="4"/>
<path d="M18.9393 38.9393C18.3536 39.5251 18.3536 40.4749 18.9393 41.0607L28.4853 50.6066C29.0711 51.1924 30.0208 51.1924 30.6066 50.6066C31.1924 50.0208 31.1924 49.0711 30.6066 48.4853L22.1213 40L30.6066 31.5147C31.1924 30.9289 31.1924 29.9792 30.6066 29.3934C30.0208 28.8076 29.0711 28.8076 28.4853 29.3934L18.9393 38.9393ZM60 38.5L20 38.5L20 41.5L60 41.5L60 38.5Z" fill="white"/>
</svg>
