<svg width="1767" height="2001" viewBox="0 0 1767 2001" fill="none" xmlns="http://www.w3.org/2000/svg">
<path d="M1766.93 -8.51601e-05L1185.31 167.002V646.429C1178.28 643.266 1171.81 640.103 1164.99 637.222C1075.88 599.739 980.178 580.431 883.5 580.431C786.822 580.431 691.118 599.739 602.009 637.222C594.977 640.103 588.367 643.337 581.616 646.429V-0.210938L0 167.002V1272.62V1822.4L305.048 1736.86C369.361 1822.45 451.825 1892.75 546.527 1942.73L656.788 2000.86V1272.62H1110.42V2001L1220.4 1942.73C1299.31 1901.07 1369.87 1845.25 1428.55 1778.05L1766.93 1683.09V1272V-8.51601e-05ZM1185.31 1876.66V1272.62V1197.69H581.616V1272.62V1876.59C505.778 1837.05 438.522 1782.9 383.725 1717.25C328.927 1651.6 287.674 1575.76 262.343 1494.1C240.101 1422.4 230.522 1347.45 233.953 1272.62C234.429 1262.22 235.156 1251.83 236.136 1241.46C244.166 1156.34 268.974 1073.65 309.131 998.162C349.287 922.674 403.997 855.878 470.106 801.626C536.214 747.374 612.414 706.74 694.31 682.066C776.206 657.392 862.179 649.166 947.271 657.864C1032.36 666.561 1114.89 692.01 1190.1 732.742L1195.51 735.764C1202.54 739.7 1209.57 743.706 1216.61 747.853C1217.94 748.697 1219.28 749.4 1220.54 750.243C1228.63 755.163 1236.51 760.224 1244.31 765.425L1248.67 768.447C1255.21 772.946 1261.68 777.514 1268.08 782.505L1272.93 786.089C1280.39 791.712 1287.77 797.546 1295.01 803.45L1297.4 805.489C1303.87 810.831 1310.2 816.313 1316.39 821.936L1321.38 826.364C1335.07 839.016 1348.27 852.229 1360.97 866.006L1365.54 870.996C1370.96 877.111 1376.37 883.296 1381.58 889.552C1382.35 890.536 1383.19 891.45 1384.04 892.434C1389.94 899.462 1395.64 906.913 1401.27 914.363L1404.99 919.424C1409.56 925.609 1414.06 931.935 1418.42 938.331L1421.8 943.181C1427 950.912 1432 958.714 1436.85 966.657L1439.45 971.014C1443.46 978.043 1447.4 984.58 1451.19 991.468C1452.32 993.436 1453.44 995.474 1454.5 997.513C1458.93 1005.74 1463.22 1014.03 1467.3 1022.46L1468.28 1024.57C1472.01 1032.3 1475.31 1040.25 1478.97 1048.19C1479.95 1050.51 1480.87 1052.76 1481.85 1055.22C1485.16 1063.16 1488.32 1071.1 1491.28 1079.12C1491.63 1080.03 1491.98 1080.87 1492.26 1081.72C1495.49 1090.5 1498.45 1099.43 1501.33 1108.43L1503.44 1115.45C1505.69 1122.9 1507.87 1130.43 1509.91 1138.02C1510.33 1139.91 1510.89 1141.74 1511.39 1143.64C1513.71 1152.78 1515.82 1161.98 1517.79 1171.26L1519.05 1177.73C1520.53 1185.39 1521.93 1193.05 1523.13 1200.71C1523.55 1203.1 1523.9 1205.49 1524.26 1207.74C1525.66 1217.23 1526.93 1226.79 1527.91 1236.42L1528.33 1241.13C1529.11 1249.42 1529.74 1257.72 1530.23 1266.08L1530.55 1272L1530.65 1274.02C1531.08 1283.86 1531.43 1293.7 1531.43 1303.61C1531.43 1315.63 1531.01 1327.58 1530.3 1339.53C1530.3 1341.43 1530.3 1343.39 1530.3 1345.36C1529.6 1356.68 1528.55 1368 1527.21 1379.17C1527.21 1381.28 1526.72 1383.46 1526.44 1385.57C1525.03 1396.95 1523.34 1408.2 1521.3 1419.37C1521.3 1420.5 1520.88 1421.62 1520.67 1422.75C1518.63 1433.57 1516.38 1444.33 1513.64 1455.01C1513.64 1456.28 1513.07 1457.61 1512.72 1458.95C1510.05 1469.84 1507.03 1480.6 1503.86 1491.21C1503.23 1493.25 1502.67 1495.21 1502.03 1497.18C1498.73 1507.73 1495 1518.27 1491.35 1528.46L1489.59 1533.1C1485.58 1543.64 1481.43 1554.19 1476.93 1564.24C1476.9 1564.52 1476.9 1564.8 1476.93 1565.08C1472.36 1575.41 1467.44 1585.6 1462.3 1595.65C1461.53 1597.27 1460.69 1598.89 1459.84 1600.5C1454.85 1610.2 1449.65 1619.69 1444.16 1629.11L1440.93 1633.47C1435.23 1643.03 1429.32 1652.52 1423.21 1661.58L1422.08 1663.27C1415.94 1672.31 1409.61 1681.19 1403.09 1689.91L1400.63 1693.28C1394.09 1702 1387.27 1710.43 1380.31 1718.8C1378.97 1720.27 1377.71 1721.82 1376.44 1723.3C1369.41 1731.59 1362.38 1739.6 1354.78 1747.47L1351.55 1750.78C1344.17 1758.51 1336.64 1766.1 1328.84 1773.41L1327.15 1775.1C1319.2 1782.55 1310.97 1789.72 1302.68 1796.82L1297.83 1800.89C1289.71 1807.64 1281.46 1814.18 1273.07 1820.5C1245.37 1841.45 1216.02 1860.14 1185.31 1876.38V1876.66Z" fill="#0065E7"/>
</svg>
