<svg width="280" height="101" viewBox="0 0 280 101" fill="none" xmlns="http://www.w3.org/2000/svg">
<g clip-path="url(#clip0_174_308)">
<path d="M111.482 2.3344V11.7749H120.583V2.3344H124.3V24.685H120.583V15.1594H111.482V24.6673H107.765V2.3344H111.482Z" fill="black"/>
<path d="M139.973 24.6673V22.0491H139.524C138.851 23.5178 137.386 24.9192 134.364 24.9192C130.968 24.9192 128.213 22.5599 128.213 18.3488V8.93671H131.738V18.0295C131.738 20.4845 133.113 21.8575 135.551 21.8575C138.305 21.8575 139.909 20.1369 139.909 17.1036V8.9438H143.434V24.6673H139.973Z" fill="black"/>
<path d="M160.689 8.93671V11.6791L151.544 21.6659H160.935V24.6673H146.897V21.9214L156.056 11.9345H147.218V8.93671H160.689Z" fill="black"/>
<path d="M170.646 8.45776C175.261 8.45776 178.336 11.743 178.336 16.4011V17.9337H166.391C166.551 20.3923 168.311 22.081 170.877 22.081C171.76 22.1158 172.633 21.8889 173.386 21.4291C174.139 20.9693 174.738 20.2973 175.107 19.4983L178.022 21.155C176.868 22.9289 174.947 25.1108 170.941 25.1108C166.134 25.1108 162.745 21.4743 162.745 16.6565C162.731 11.9665 166.034 8.45776 170.646 8.45776ZM174.715 15.3191C174.555 12.9563 173.048 11.4911 170.614 11.4911C168.119 11.4911 166.672 12.9563 166.384 15.3191H174.715Z" fill="black"/>
<path d="M183.753 8.9367V5.33222C183.753 3.5761 184.972 2.3344 186.703 2.3344H190.773V5.36415H188.147C187.569 5.36415 187.281 5.65151 187.281 6.2901V8.9367H191.607V11.9665H187.281V24.6673H183.753V11.9665H179.555V8.9367H183.753Z" fill="black"/>
<path d="M201.314 8.48969C205.591 8.48969 208.363 10.9483 208.363 14.6805V24.6673H204.903V22.3045H204.454C203.877 23.5498 202.501 25.1108 199.198 25.1108C195.634 25.1108 193.303 23.1985 193.303 20.2646C193.303 17.5825 195.385 15.9541 198.941 15.6064L204.878 15.0104V14.5847C204.878 12.7647 203.563 11.5514 201.193 11.5514C198.823 11.5514 197.444 12.7008 196.578 14.457L193.631 12.7966C195.132 10.3984 197.473 8.48969 201.314 8.48969ZM199.935 22.2087C203.21 22.2087 204.878 20.2646 204.878 17.8486V17.5931L199.718 18.1359C198.054 18.2956 196.963 18.8455 196.963 20.1156C196.963 21.3856 198.018 22.2087 199.939 22.2087H199.935Z" fill="black"/>
<path d="M122.312 32.5468V35.9419H111.482V41.9731H121.414V45.3576H111.482V51.5129H122.472V54.8974H107.765V32.5468H122.312Z" fill="black"/>
<path d="M129.044 39.1349V41.7212H129.493C130.205 40.2524 131.631 38.883 134.653 38.883C138.081 38.883 140.807 41.2138 140.807 45.425V54.869H137.279V45.7549C137.279 43.2964 135.904 41.9553 133.466 41.9553C130.711 41.9553 129.108 43.6795 129.108 46.7093V54.869H125.583V39.1349H129.044Z" fill="black"/>
<path d="M160.133 39.1349V54.3546C160.133 58.6296 157.054 61.6913 152.186 61.6913C147.888 61.6913 145.454 59.6797 143.883 57.2886L146.93 55.4686C147.796 57.1289 149.396 58.6296 151.961 58.6296C154.652 58.6296 156.594 57.2105 156.594 54.195V52.0663H156.209C155.375 53.4854 153.932 54.8761 150.985 54.8761C146.947 54.8761 143.644 51.5235 143.644 46.7696C143.644 42.0156 146.947 38.6985 150.985 38.6985C153.932 38.6985 155.375 40.1176 156.209 41.4728H156.658V39.1349H160.133ZM156.608 46.7589C156.608 43.6653 154.716 41.8134 151.929 41.8134C149.203 41.8134 147.186 43.5695 147.186 46.7589C147.186 49.9483 149.203 51.7257 151.929 51.7257C154.716 51.7506 156.608 49.9022 156.608 46.7731V46.7589Z" fill="black"/>
<path d="M165.934 31.9082C166.279 31.8954 166.623 31.9519 166.945 32.0744C167.268 32.197 167.562 32.3829 167.81 32.6212C168.059 32.8595 168.256 33.1452 168.391 33.4613C168.526 33.7774 168.596 34.1173 168.596 34.4608C168.596 34.8042 168.526 35.1441 168.391 35.4602C168.256 35.7763 168.059 36.062 167.81 36.3003C167.562 36.5386 167.268 36.7246 166.945 36.8471C166.623 36.9696 166.279 37.0261 165.934 37.0133C165.59 37.0261 165.246 36.9696 164.924 36.8471C164.601 36.7246 164.307 36.5386 164.059 36.3003C163.81 36.062 163.613 35.7763 163.478 35.4602C163.343 35.1441 163.273 34.8042 163.273 34.4608C163.273 34.1173 163.343 33.7774 163.478 33.4613C163.613 33.1452 163.81 32.8595 164.059 32.6212C164.307 32.3829 164.601 32.197 164.924 32.0744C165.246 31.9519 165.59 31.8954 165.934 31.9082ZM167.699 54.8797H164.17V39.1349H167.699V54.8797Z" fill="black"/>
<path d="M175.196 39.1349V41.7212H175.656C176.369 40.2524 177.794 38.883 180.816 38.883C184.245 38.883 186.967 41.2138 186.967 45.425V54.869H183.443V45.7549C183.443 43.2964 182.064 41.9553 179.63 41.9553C176.875 41.9553 175.271 43.6795 175.271 46.7093V54.869H171.736V39.1349H175.196Z" fill="black"/>
<path d="M197.726 38.6701C202.359 38.6701 205.42 41.9553 205.42 46.6135V48.1461H193.474C193.635 50.6011 195.399 52.2934 197.961 52.2934C198.844 52.3291 199.718 52.1026 200.471 51.6427C201.224 51.1828 201.823 50.5103 202.191 49.7106L205.11 51.3674C203.955 53.1413 202.031 55.3231 198.025 55.3231C193.218 55.3231 189.829 51.6867 189.829 46.8689C189.811 42.1788 193.118 38.6701 197.726 38.6701ZM201.799 45.5208C201.639 43.158 200.131 41.6892 197.694 41.6892C195.199 41.6892 193.752 43.158 193.464 45.5208H201.799Z" fill="black"/>
<path d="M215.259 38.6701C219.892 38.6701 222.949 41.9553 222.949 46.6135V48.1461H210.997C211.157 50.6011 212.921 52.2934 215.484 52.2934C216.366 52.3281 217.239 52.1012 217.993 51.6414C218.746 51.1817 219.345 50.5097 219.714 49.7106L222.629 51.3674C221.478 53.1413 219.553 55.3231 215.548 55.3231C210.74 55.3231 207.351 51.6867 207.351 46.8689C207.344 42.1788 210.644 38.6701 215.259 38.6701ZM219.329 45.5208C219.168 43.158 217.661 41.6892 215.227 41.6892C212.732 41.6892 211.286 43.158 210.997 45.5208H219.329Z" fill="black"/>
<path d="M229.296 41.5757H229.745C230.323 39.8515 231.638 39.0923 233.783 39.0923H235.451V42.3775H232.888C230.75 42.3775 229.392 43.5589 229.392 45.8578V54.8867H225.868V39.1349H229.296V41.5757Z" fill="black"/>
<path d="M239.649 31.9082C239.993 31.8954 240.337 31.9519 240.66 32.0744C240.982 32.197 241.276 32.3829 241.524 32.6212C241.773 32.8595 241.971 33.1452 242.106 33.4613C242.241 33.7774 242.31 34.1173 242.31 34.4608C242.31 34.8042 242.241 35.1441 242.106 35.4602C241.971 35.7763 241.773 36.062 241.524 36.3003C241.276 36.5386 240.982 36.7246 240.66 36.8471C240.337 36.9696 239.993 37.0261 239.649 37.0133C239.304 37.0261 238.96 36.9696 238.638 36.8471C238.316 36.7246 238.021 36.5386 237.773 36.3003C237.524 36.062 237.327 35.7763 237.192 35.4602C237.057 35.1441 236.987 34.8042 236.987 34.4608C236.987 34.1173 237.057 33.7774 237.192 33.4613C237.327 33.1452 237.524 32.8595 237.773 32.6212C238.021 32.3829 238.316 32.197 238.638 32.0744C238.96 31.9519 239.304 31.8954 239.649 31.9082ZM241.413 54.8797H237.888V39.1349H241.413V54.8797Z" fill="black"/>
<path d="M248.914 39.1349V41.7212H249.36C250.072 40.2524 251.498 38.883 254.52 38.883C257.948 38.883 260.674 41.2138 260.674 45.425V54.869H257.15V45.7549C257.15 43.2964 255.771 41.9553 253.333 41.9553C250.578 41.9553 248.975 43.6795 248.975 46.7093V54.869H245.45V39.1349H248.914Z" fill="black"/>
<path d="M280 39.1349V54.3546C280 58.6296 276.925 61.6913 272.053 61.6913C267.777 61.6913 265.321 59.6797 263.753 57.2886L266.797 55.4686C267.663 57.1289 269.263 58.6296 271.829 58.6296C274.519 58.6296 276.461 57.2105 276.461 54.195V52.0663H276.076C275.242 53.4854 273.799 54.8761 270.852 54.8761C266.814 54.8761 263.514 51.5235 263.514 46.7696C263.514 42.0156 266.814 38.6985 270.852 38.6985C273.799 38.6985 275.242 40.1176 276.076 41.4728H276.525V39.1349H280ZM276.476 46.7589C276.476 43.6653 274.583 41.8134 271.796 41.8134C269.07 41.8134 267.053 43.5695 267.053 46.7589C267.053 49.9483 269.07 51.7257 271.796 51.7257C274.583 51.7506 276.476 49.9022 276.476 46.7731V46.7589Z" fill="black"/>
<path d="M117.034 87.8876C115.381 87.9191 113.74 87.5922 112.227 86.9297C110.876 86.3273 109.735 85.3396 108.948 84.0916C108.128 82.731 107.717 81.1648 107.765 79.5789V78.7274H111.436V79.5789C111.436 81.2676 111.945 82.5329 112.964 83.3749C113.984 84.2169 115.34 84.6379 117.034 84.6379C118.752 84.6379 120.042 84.2831 120.915 83.5736C121.334 83.2414 121.67 82.817 121.896 82.3337C122.122 81.8505 122.233 81.3216 122.219 80.7886C122.247 80.1177 122.026 79.4599 121.599 78.9403C121.122 78.4204 120.52 78.0298 119.849 77.805C118.963 77.4799 118.058 77.2109 117.137 76.9997L115.865 76.691C114.488 76.3748 113.148 75.9158 111.867 75.3216C110.817 74.856 109.911 74.1214 109.24 73.193C108.585 72.1752 108.261 70.9808 108.314 69.773C108.279 68.4842 108.649 67.2169 109.372 66.1472C110.101 65.1172 111.106 64.312 112.273 63.8235C113.652 63.2492 115.137 62.9699 116.631 63.0039C118.169 62.9775 119.695 63.2686 121.114 63.8589C122.375 64.3826 123.454 65.2603 124.222 66.3849C125.017 67.6418 125.412 69.1083 125.355 70.5925V71.82H121.67V70.5925C121.707 69.7203 121.485 68.8567 121.032 68.1091C120.602 67.4666 119.978 66.9761 119.251 66.7077C118.405 66.3969 117.508 66.2465 116.606 66.2643C115.143 66.2643 114.005 66.5658 113.192 67.169C112.798 67.456 112.48 67.8353 112.268 68.2733C112.055 68.7113 111.954 69.1947 111.974 69.6807C111.945 70.3213 112.132 70.9531 112.505 71.4759C112.916 71.9869 113.454 72.382 114.066 72.6218C114.898 72.9629 115.761 73.2266 116.642 73.4094L117.911 73.7145C119.327 74.0123 120.708 74.4533 122.034 75.0307C123.142 75.5047 124.111 76.2519 124.849 77.2019C125.57 78.2311 125.932 79.4675 125.879 80.7212C125.912 82.0534 125.539 83.3644 124.81 84.4818C124.044 85.5904 122.979 86.4611 121.738 86.9936C120.253 87.624 118.648 87.9289 117.034 87.8876Z" fill="black"/>
<path d="M137.636 87.8876C136.069 87.9277 134.519 87.5608 133.138 86.8233C131.865 86.1157 130.822 85.0609 130.13 83.7829C129.391 82.3757 129.023 80.8046 129.061 79.217V78.809C129.021 77.2065 129.389 75.62 130.13 74.197C130.808 72.9211 131.838 71.8648 133.099 71.153C134.451 70.4202 135.972 70.0532 137.511 70.0887C139.007 70.0528 140.484 70.4205 141.787 71.153C142.998 71.8684 143.985 72.9052 144.638 74.1473C145.351 75.5308 145.705 77.07 145.668 78.6245V79.9549H132.657C132.647 80.6168 132.774 81.2738 133.031 81.8843C133.288 82.4949 133.669 83.0459 134.15 83.5026C135.119 84.389 136.399 84.8616 137.714 84.8189C139.04 84.8189 140.041 84.522 140.718 83.9284C141.375 83.3595 141.906 82.6613 142.279 81.8778L145.198 83.382C144.817 84.1069 144.351 84.7835 143.808 85.3971C143.144 86.1472 142.331 86.7513 141.42 87.171C140.229 87.692 138.935 87.937 137.636 87.8876ZM132.689 77.2445H142.065C142.05 76.6795 141.92 76.1235 141.683 75.6096C141.447 75.0958 141.109 74.6346 140.69 74.2537C139.783 73.5123 138.633 73.133 137.461 73.1894C136.285 73.1355 135.131 73.5144 134.218 74.2537C133.352 75.0304 132.807 76.1003 132.689 77.2551V77.2445Z" fill="black"/>
<path d="M149.927 87.4087V70.557H153.394V72.5402H153.943C154.179 71.8784 154.649 71.3248 155.265 70.9828C155.961 70.6326 156.734 70.463 157.514 70.4896H159.541V73.6826H157.378C156.355 73.6397 155.353 73.9745 154.563 74.6227C153.829 75.2471 153.462 76.2121 153.462 77.5106V87.4229L149.927 87.4087Z" fill="black"/>
<path d="M167.128 87.4087L161.426 70.557H165.172L169.669 84.8118H170.218L174.715 70.557H178.457L172.755 87.4087H167.128Z" fill="black"/>
<path d="M183.678 68.2652C183.359 68.2739 183.041 68.2194 182.743 68.1049C182.445 67.9904 182.173 67.8182 181.942 67.5982C181.493 67.1352 181.242 66.5163 181.242 65.8723C181.242 65.2282 181.493 64.6094 181.942 64.1463C182.42 63.717 183.041 63.4794 183.685 63.4794C184.329 63.4794 184.95 63.717 185.428 64.1463C185.869 64.6135 186.115 65.2308 186.115 65.8723C186.115 66.5137 185.869 67.131 185.428 67.5982C185.196 67.8208 184.922 67.9945 184.621 68.1091C184.32 68.2237 184 68.2768 183.678 68.2652ZM181.896 87.4229V70.5712H185.431V87.4229H181.896Z" fill="black"/>
<path d="M198.542 87.8876C197.01 87.9079 195.495 87.556 194.13 86.8623C192.825 86.188 191.741 85.155 191.008 83.8858C190.207 82.4571 189.809 80.8387 189.857 79.2028V78.7594C189.807 77.129 190.205 75.5159 191.008 74.0941C191.749 72.8316 192.83 71.8015 194.13 71.1211C195.491 70.415 197.007 70.0566 198.542 70.0781C199.979 70.0368 201.405 70.3423 202.697 70.9686C203.796 71.5212 204.744 72.3292 205.463 73.3242C206.155 74.2914 206.618 75.4026 206.817 76.574L203.385 77.2835C203.282 76.5607 203.04 75.8645 202.672 75.2329C202.301 74.6121 201.766 74.1042 201.126 73.7642C200.354 73.3744 199.496 73.1853 198.631 73.2143C197.698 73.2075 196.78 73.4448 195.969 73.9025C195.175 74.3507 194.526 75.0154 194.098 75.8183C193.615 76.7514 193.378 77.7916 193.41 78.841V79.1496C193.38 80.2056 193.616 81.2523 194.098 82.1935C194.52 82.9999 195.17 83.6649 195.969 84.1058C196.786 84.5455 197.702 84.769 198.631 84.755C200.118 84.755 201.252 84.373 202.031 83.6091C202.823 82.8175 203.34 81.7944 203.506 80.6893L206.938 81.4734C206.668 82.6293 206.172 83.7212 205.48 84.6876C204.764 85.6811 203.815 86.485 202.715 87.0291C201.412 87.6419 199.982 87.9363 198.542 87.8876Z" fill="black"/>
<path d="M218.776 87.8876C217.21 87.9272 215.66 87.5604 214.279 86.8233C213.006 86.1164 211.964 85.0613 211.275 83.7829C210.536 82.3757 210.168 80.8046 210.206 79.217V78.809C210.167 77.2067 210.535 75.6206 211.275 74.197C211.953 72.9201 212.984 71.8637 214.247 71.153C215.599 70.4197 217.12 70.0527 218.659 70.0887C220.155 70.0517 221.633 70.4195 222.935 71.153C224.147 71.8677 225.134 72.9046 225.786 74.1473C226.497 75.5314 226.851 77.0701 226.816 78.6245V79.9549H213.787C213.778 80.6166 213.906 81.273 214.163 81.8833C214.42 82.4937 214.8 83.0448 215.28 83.5026C216.25 84.3883 217.529 84.8608 218.844 84.8189C220.175 84.8189 221.177 84.522 221.852 83.9284C222.508 83.3585 223.039 82.6606 223.413 81.8778L226.331 83.382C225.951 84.1069 225.485 84.7835 224.942 85.3971C224.277 86.1456 223.464 86.7494 222.554 87.171C221.365 87.6903 220.074 87.9353 218.776 87.8876ZM213.834 77.2445H223.206C223.191 76.6797 223.062 76.1238 222.826 75.6099C222.59 75.096 222.253 74.6348 221.834 74.2537C220.901 73.556 219.765 73.1788 218.598 73.1788C217.431 73.1788 216.296 73.556 215.362 74.2537C214.491 75.0277 213.941 76.0983 213.823 77.2551L213.834 77.2445Z" fill="black"/>
<path d="M237.995 87.8876C235.843 87.8876 234.061 87.4087 232.65 86.4508C231.238 85.4929 230.368 84.0455 230.038 82.1084L233.334 81.3243C233.462 82.1272 233.78 82.8883 234.26 83.5452C234.681 84.0808 235.248 84.4847 235.893 84.7089C236.572 84.9452 237.286 85.0652 238.006 85.0636C239.125 85.0636 239.991 84.8472 240.597 84.4144C240.877 84.234 241.108 83.986 241.267 83.6932C241.426 83.4005 241.508 83.0726 241.505 82.7399C241.522 82.434 241.45 82.1298 241.299 81.8632C241.147 81.5967 240.922 81.3789 240.65 81.2357C239.849 80.8435 238.992 80.5777 238.109 80.4481L236.94 80.2458C235.87 80.0604 234.822 79.7618 233.815 79.3554C232.946 79.0184 232.178 78.465 231.584 77.7482C231.012 76.9922 230.721 76.0617 230.761 75.1158C230.728 74.3995 230.873 73.6861 231.184 73.0392C231.495 72.3923 231.962 71.8321 232.543 71.4085C233.731 70.5334 235.309 70.0946 237.279 70.0923C239.179 70.0923 240.742 70.5192 241.965 71.373C243.167 72.1937 244.018 73.4307 244.353 74.8427L241.056 75.7651C240.85 74.7386 240.415 74.016 239.752 73.5974C239.006 73.1528 238.148 72.9323 237.279 72.9624C236.488 72.9207 235.701 73.1053 235.012 73.4945C234.754 73.6465 234.542 73.8646 234.397 74.126C234.252 74.3874 234.181 74.6826 234.189 74.981C234.171 75.2817 234.237 75.5815 234.38 75.8471C234.523 76.1126 234.737 76.3335 234.998 76.4853C235.675 76.8499 236.413 77.0903 237.176 77.1948L238.38 77.4006C239.513 77.5856 240.627 77.8717 241.708 78.2556C242.63 78.5604 243.454 79.1027 244.096 79.8272C244.71 80.6036 245.021 81.5756 244.969 82.5625C245.005 83.3216 244.851 84.0777 244.522 84.7635C244.193 85.4492 243.699 86.0435 243.084 86.4934C241.818 87.4229 240.121 87.8876 237.995 87.8876Z" fill="black"/>
<path d="M89.544 -0.000205938L60.069 8.42917V32.6282C59.7126 32.4685 59.3848 32.3089 59.0391 32.1634C54.5238 30.2691 49.6736 29.2933 44.7738 29.2933C39.874 29.2933 35.0237 30.2691 30.5085 32.1634C30.1521 32.3089 29.8171 32.4685 29.475 32.6282V-0.010849L0 8.42917V91.9957L15.4591 87.6746C18.7165 91.9992 22.8959 95.5516 27.6967 98.0765L33.2845 101.01V64.2348H56.2737V101L61.8615 98.0658C65.8603 95.963 69.436 93.1453 72.4099 89.7535L89.5582 84.9606L89.544 -0.000205938ZM60.069 94.7239V60.4423H29.475V94.7097C25.6317 92.7139 22.2233 89.9804 19.4463 86.6668C16.6693 83.3533 14.5787 79.5252 13.295 75.4034C12.0113 71.2816 11.5599 66.9476 11.9668 62.6513C12.3738 58.355 13.631 54.1814 15.666 50.3711C17.7011 46.5609 20.4737 43.1894 23.8239 40.451C27.1741 37.7127 31.0357 35.6617 35.186 34.4163C39.3364 33.1708 43.6933 32.7557 48.0055 33.1947C52.3178 33.6337 56.5001 34.9182 60.3113 36.9741L60.5857 37.1267C60.9421 37.3253 61.2985 37.5276 61.6548 37.7369C61.7225 37.7794 61.7902 37.8149 61.8544 37.8575C62.2642 38.1023 62.6633 38.3613 63.0589 38.6238L63.2798 38.7764C63.6113 38.9999 63.9391 39.234 64.2634 39.4859L64.5093 39.6668C64.887 39.9507 65.2612 40.2416 65.6283 40.5431L65.7495 40.646C66.0773 40.9156 66.398 41.1924 66.7116 41.4762L66.9647 41.6997C67.6584 42.3383 68.3272 43.0052 68.971 43.7006C69.0494 43.7822 69.1242 43.8673 69.2026 43.9525C69.477 44.2611 69.7514 44.5698 70.0151 44.8891C70.0544 44.9387 70.0971 44.9849 70.1399 45.0345C70.4392 45.3893 70.7279 45.7654 71.013 46.1414L71.2018 46.3969C71.4335 46.7091 71.6616 47.0284 71.8825 47.3512L72.0536 47.596C72.3173 47.9862 72.5703 48.38 72.8162 48.7809L72.948 49.0009C73.1512 49.3557 73.3507 49.6856 73.5432 50.0333C73.6002 50.1326 73.6572 50.2355 73.7107 50.3384C73.9352 50.7535 74.1525 51.1721 74.3592 51.5978C74.3771 51.6333 74.3913 51.6688 74.4091 51.7007C74.598 52.0945 74.7655 52.4954 74.9508 52.8963C75.0007 53.0098 75.047 53.1269 75.0969 53.251C75.2644 53.6519 75.4248 54.0528 75.5745 54.4573C75.5923 54.5034 75.6101 54.546 75.6243 54.5885C75.7883 55.032 75.9379 55.4826 76.0841 55.9367L76.191 56.2914C76.305 56.671 76.4155 57.0507 76.5188 57.4338C76.5402 57.5296 76.5687 57.6218 76.5937 57.7176C76.7113 58.1788 76.8182 58.6436 76.9179 59.1119L76.9821 59.4383C77.0569 59.825 77.1282 60.2117 77.1888 60.5984C77.2102 60.719 77.228 60.8396 77.2458 60.9531C77.3171 61.4321 77.3812 61.9146 77.4311 62.4006L77.4525 62.6383C77.4917 63.0534 77.5238 63.4756 77.5487 63.8978L77.5701 64.2986C77.5915 64.7953 77.6093 65.292 77.6093 65.7922C77.6093 66.3989 77.5879 67.002 77.5523 67.6051C77.5523 67.7009 77.5523 67.8002 77.5523 67.8996C77.5166 68.4708 77.4632 69.0419 77.3955 69.606C77.3955 69.7125 77.3705 69.8224 77.3563 69.9289C77.285 70.5001 77.1995 71.0712 77.0961 71.6318C77.0961 71.6921 77.0748 71.7488 77.0641 71.8056C76.9607 72.352 76.8467 72.8948 76.7077 73.4305C76.7077 73.4979 76.6792 73.5653 76.6614 73.6327C76.5259 74.1826 76.3727 74.7254 76.2123 75.2611C76.1803 75.364 76.1518 75.4633 76.1197 75.5626C75.9522 76.0948 75.7633 76.627 75.578 77.1414L75.4889 77.3755C75.2858 77.9077 75.0755 78.4398 74.8475 78.9472C74.8461 78.9613 74.8461 78.9756 74.8475 78.9897C74.6158 79.5113 74.3664 80.0257 74.1062 80.533C74.067 80.6146 74.0243 80.6962 73.9815 80.7778C73.7297 81.2674 73.4648 81.7475 73.1868 82.2182L73.0407 82.4665C72.7508 82.9395 72.4515 83.4126 72.1427 83.8856L72.0856 83.9707C71.7744 84.4296 71.4537 84.8778 71.1234 85.3153L70.9987 85.4856C70.6673 85.922 70.3216 86.3513 69.9688 86.7699L69.7728 87.0005C69.4165 87.4144 69.0506 87.8212 68.6752 88.2209L68.5113 88.3876C68.1371 88.7779 67.7558 89.1575 67.3602 89.53L67.2747 89.6152C66.872 89.9912 66.4551 90.3531 66.0345 90.7114L65.7887 90.9172C65.3776 91.2578 64.9595 91.5877 64.5342 91.907C63.1238 92.959 61.6306 93.8963 60.069 94.7097V94.7239Z" fill="#0065E7"/>
</g>
<defs>
<clipPath id="clip0_174_308">
<rect width="280" height="101" fill="white"/>
</clipPath>
</defs>
</svg>
